<?xml version="1.0" standalone="no"?>
<!DOCTYPE svg PUBLIC "-//W3C//DTD SVG 20010904//EN"
 "http://www.w3.org/TR/2001/REC-SVG-20010904/DTD/svg10.dtd">
<svg version="1.0" xmlns="http://www.w3.org/2000/svg"
 width="141.000000pt" height="63.000000pt" viewBox="0 0 141.000000 63.000000"
 preserveAspectRatio="xMidYMid meet">

<g transform="translate(0.000000,63.000000) scale(0.100000,-0.100000)"
fill="#000000" stroke="none">
<path d="M144 411 c-56 -34 -72 -132 -31 -192 27 -41 85 -63 139 -54 108 19
143 167 57 240 -39 32 -118 35 -165 6z m127 -48 c8 -9 14 -38 14 -65 0 -40 -5
-53 -24 -69 -31 -25 -47 -24 -76 6 -29 29 -34 88 -9 123 19 27 75 30 95 5z"/>
<path d="M453 410 c-42 -25 -53 -48 -53 -114 0 -69 32 -113 90 -122 22 -4 49
-17 61 -30 14 -15 34 -24 52 -24 l30 0 -23 25 -23 24 31 35 c56 63 51 149 -9
201 -38 32 -109 34 -156 5z m116 -46 c45 -57 17 -154 -44 -154 -64 0 -91 105
-40 155 31 32 58 32 84 -1z"/>
<path d="M710 300 l0 -130 35 0 c35 0 35 0 35 44 l0 43 50 5 c62 6 90 29 90
74 0 71 -33 94 -140 94 l-70 0 0 -130z m135 45 c0 -27 -4 -30 -32 -33 -32 -3
-33 -2 -33 33 0 35 1 36 33 33 28 -3 32 -6 32 -33z"/>
<path d="M960 313 c-24 -65 -45 -124 -48 -130 -3 -9 7 -13 31 -13 29 0 36 4
41 25 6 22 11 25 56 25 44 0 52 -3 62 -25 9 -19 19 -25 44 -25 l32 0 -47 128
-48 127 -40 3 -40 3 -43 -118z m109 -30 c1 -8 -11 -13 -30 -13 -33 0 -33 3 -7
70 l10 25 13 -35 c8 -19 14 -41 14 -47z"/>
<path d="M1210 300 l0 -130 35 0 35 0 0 130 0 130 -35 0 -35 0 0 -130z"/>
</g>
</svg>
